<svg width="65%" height="300" viewBox="0 0 1440 1112" fill="none" xmlns="http://www.w3.org/2000/svg">
<path opacity="0.5" d="M735.635 37.6942C615.697 138.217 597.111 328.298 515.881 468.527C487.604 517.322 451.067 560.992 432.004 615.123C388.238 739.026 448.472 879.572 529.093 977.981C567.536 1024.93 612.44 1067.94 666.77 1087.72C708.55 1102.94 753.348 1103.57 797.325 1103.97L1567.79 1111.9C1653.81 1112.77 1749.39 1109.62 1811.24 1043.21C1853.87 997.478 1871.18 930.692 1885.88 866.944C1903.93 788.613 1920.3 703.546 1892.2 628.94C1860.11 543.582 1778.96 495.21 1728.55 421.555C1646.74 302.223 1648.62 121.731 1544.44 26.4664C1495.8 -17.9959 1431.62 -35.4321 1369.08 -44.1502C1251.18 -60.6089 1139.51 -29.5408 1023.72 -33.8734C924.756 -37.572 817.739 -31.1259 735.635 37.6942Z" fill="#E7ECFF"/<param>
</svg>
